<?xml version="1.0" encoding="utf-8"?>
<!-- Generator: Adobe Illustrator 15.1.0, SVG Export Plug-In . SVG Version: 6.00 Build 0)  -->
<!DOCTYPE svg PUBLIC "-//W3C//DTD SVG 1.1//EN" "http://www.w3.org/Graphics/SVG/1.1/DTD/svg11.dtd">
<svg version="1.1" id="圖層_1" xmlns="http://www.w3.org/2000/svg" xmlns:xlink="http://www.w3.org/1999/xlink" x="0px" y="0px"
	 width="257.063px" height="52px" viewBox="0 0 257.063 52" style="enable-background:new 0 0 257.063 52;" xml:space="preserve">
<style type="text/css">
<![CDATA[
	.st0{fill:none;stroke:#000000;stroke-width:2;stroke-miterlimit:10;}
	.st1{fill:#F1F1F1;stroke:#000000;stroke-miterlimit:10;}
]]>
</style>
<g>
	<path class="st1" d="M62.913,33.297c-0.72,0.144-1.824,0.239-3.264,0.239c-8.185,0-10.225-4.896-10.225-7.104
		c0-3.937,3.625-8.953,12.097-10.465l0.36,2.016c-5.497,0.625-10.033,3.913-10.033,8.041c0,2.929,2.304,5.688,8.041,5.688
		c0.96,0,1.968-0.144,2.784-0.336L62.913,33.297z"/>
	<path class="st1" d="M69.319,33.152c0.048-0.889,0.072-5.664,0.072-6.192v-2.208c0-0.36-0.072-5.401-0.12-5.881H71.6
		c-0.048,0.36-0.12,4.536-0.12,4.896v1.488l9.241-0.384v-1.536c0-0.336-0.048-4.008-0.072-4.464h2.329
		c-0.048,0.48-0.168,6-0.168,6.48v2.04c0,0.265,0.048,5.377,0.096,5.761H80.6c0.072-0.696,0.12-4.32,0.12-4.704v-2.064l-9.241,0.384
		v1.248c0,0.912,0.072,4.656,0.096,5.137H69.319z"/>
	<path class="st1" d="M88.711,32.528c1.152-2.04,7.393-13.585,7.873-14.377h0.048c1.848,2.904,7.033,12.097,8.449,14.233
		l-1.944,1.176c-0.384-0.769-2.64-4.801-2.856-5.16l-7.417,0.287c-0.288,0.648-1.968,4.201-2.304,4.896L88.711,32.528z
		 M99.536,26.936c-0.24-0.456-2.76-5.064-2.976-5.4c-0.312,0.48-2.688,5.305-2.88,5.641L99.536,26.936z"/>
	<path class="st1" d="M113.071,26.912c0,0.768,0.072,5.928,0.12,6.24h-2.256c0.072-0.48,0.048-6.961,0.048-7.393v-1.656
		c0-0.624-0.048-4.849-0.12-5.232c1.032,0,2.928-0.048,4.752,0.168c2.88,0.336,4.561,1.512,4.561,3.288
		c0,1.681-1.296,3.121-3.096,4.177c0.552,0.744,4.417,4.969,5.041,5.568l-1.656,1.464c-0.24-0.288-5.185-6.337-5.833-7.2
		c1.08-0.552,3.264-1.656,3.264-3.696c0-0.96-0.744-2.185-4.824-2.208V26.912z"/>
	<path class="st1" d="M125.334,32.528c1.152-2.04,7.393-13.585,7.873-14.377h0.048c1.848,2.904,7.033,12.097,8.449,14.233
		l-1.944,1.176c-0.384-0.769-2.64-4.801-2.856-5.16l-7.417,0.287c-0.288,0.648-1.968,4.201-2.304,4.896L125.334,32.528z
		 M136.16,26.936c-0.24-0.456-2.76-5.064-2.977-5.4c-0.312,0.48-2.688,5.305-2.88,5.641L136.16,26.936z"/>
	<path class="st1" d="M157.784,33.32c-0.408,0.072-1.417,0.168-2.736,0.168c-7.441,0-9.265-4.08-9.265-6.049
		c0-3.456,3.265-7.608,10.729-8.929l0.336,1.824c-4.752,0.576-8.833,3.217-8.833,6.769c0,2.4,2.04,4.656,7.249,4.656
		c0.888,0,1.8-0.119,2.304-0.239L157.784,33.32z"/>
	<path class="st1" d="M166.542,33.152c0.12-0.528,0.144-6.48,0.144-9.721v-2.856c-2.472,0-5.568,0.096-5.88,0.192v-1.944
		c0.624,0.168,5.785,0.24,6.024,0.24h1.92c0.408,0,5.16-0.072,5.856-0.24v1.944c-0.048-0.096-4.081-0.192-5.833-0.192v3.168
		c0,4.153,0.216,9,0.264,9.409H166.542z"/>
	<path class="st1" d="M187.711,33.368c-0.72,0-7.297-0.216-7.729-0.216c0.072-1.08,0.072-5.448,0.072-5.929v-2.712
		c0-0.336-0.048-5.257-0.072-5.641c0.528,0,6.217-0.312,7.297-0.384l0.096,1.728c-0.936,0-4.872,0.096-5.232,0.096v4.992
		c0.408,0,3.192-0.096,4.513-0.216l0.072,1.752c-0.36,0-1.392-0.024-2.4-0.048c-0.984,0-1.944-0.024-2.184-0.024v4.849
		c0.528,0,3.457,0.048,5.497-0.072L187.711,33.368z"/>
	<path class="st1" d="M197.214,26.912c0,0.768,0.072,5.928,0.12,6.24h-2.256c0.072-0.48,0.048-6.961,0.048-7.393v-1.656
		c0-0.624-0.048-4.849-0.12-5.232c1.032,0,2.929-0.048,4.752,0.168c2.88,0.336,4.561,1.512,4.561,3.288
		c0,1.681-1.296,3.121-3.096,4.177c0.552,0.744,4.416,4.969,5.04,5.568l-1.656,1.464c-0.24-0.288-5.185-6.337-5.833-7.2
		c1.08-0.552,3.264-1.656,3.264-3.696c0-0.96-0.744-2.185-4.824-2.208V26.912z"/>
</g>
<path class="st0" d="M256.063,26c0,13.807-11.252,25-25.132,25H26.195C12.314,51,1.063,39.807,1.063,26l0,0
	c0-13.807,11.251-25,25.132-25H230.93C244.81,1,256.063,12.193,256.063,26L256.063,26z"/>
</svg>
