<?xml version="1.0" encoding="utf-8"?>
<!-- Generator: Adobe Illustrator 15.1.0, SVG Export Plug-In . SVG Version: 6.00 Build 0)  -->
<!DOCTYPE svg PUBLIC "-//W3C//DTD SVG 1.1//EN" "http://www.w3.org/Graphics/SVG/1.1/DTD/svg11.dtd">
<svg version="1.1" id="圖層_1" xmlns="http://www.w3.org/2000/svg" xmlns:xlink="http://www.w3.org/1999/xlink" x="0px" y="0px"
	 width="257.063px" height="52px" viewBox="0 0 257.063 52" style="enable-background:new 0 0 257.063 52;" xml:space="preserve">
<style type="text/css">
<![CDATA[
	.st0{fill:none;stroke:#000000;stroke-width:2;stroke-miterlimit:10;}
	.st1{fill:#F1F1F1;stroke:#000000;stroke-miterlimit:10;}
]]>
</style>
<path class="st0" d="M256.031,26c0,13.807-11.252,25-25.133,25H26.164C12.283,51,1.031,39.807,1.031,26l0,0
	c0-13.807,11.252-25,25.133-25h204.734C244.779,1,256.031,12.193,256.031,26L256.031,26z"/>
<g>
	<g>
		<path class="st1" d="M36.071,26.888c0,2.4,0.072,6.697,0.096,7.249h-2.328c0.049-1.057,0.072-6.673,0.072-7.297v-2.592
			c0-0.408-0.072-6.337-0.12-6.913h2.4c-0.048,0.433-0.12,4.081-0.12,6.961V26.888z"/>
		<path class="st1" d="M44.495,34.137c0.12-1.536,0.721-12.985,0.816-15.098h0.12c0.624,0.672,10.633,10.753,11.305,11.401
			c0-0.576,0.048-10.009,0.072-10.681l2.136,0.096c-0.096,1.224-0.504,9.577-0.6,14.713h-0.097
			c-0.624-0.552-11.137-11.041-11.4-11.329H46.8c0.048,0.384-0.12,10.369-0.097,11.042L44.495,34.137z"/>
		<path class="st1" d="M66.72,34.137c0.191-1.08,0.191-5.448,0.191-5.929v-2.712c0-0.336-0.048-5.257-0.096-5.641
			c0.552,0,6.024-0.216,7.272-0.312l0.096,1.728l-5.185,0.096v4.993c0.408,0,3.505-0.12,4.776-0.192l0.072,1.704l-4.849-0.071v1.871
			c0,0.313-0.023,4.177,0.072,4.465H66.72z"/>
		<path class="st1" d="M79.343,27.729c0-4.537,3.336-8.209,8.617-8.209c4.224,0,7.32,2.568,7.32,6.96
			c0,3.192-2.256,7.993-8.545,7.993C81.959,34.473,79.343,31.328,79.343,27.729z M93.048,26.576c0-3.648-2.544-5.473-5.4-5.473
			c-3.816,0-6.097,2.832-6.097,6.313c0,3.049,2.04,5.473,5.377,5.473C90.216,32.889,93.048,30.608,93.048,26.576z"/>
		<path class="st1" d="M104.039,27.896c0,0.768,0.072,5.928,0.12,6.24h-2.256c0.071-0.48,0.048-6.961,0.048-7.393v-1.656
			c0-0.624-0.048-4.849-0.12-5.232c1.032,0,2.928-0.048,4.752,0.168c2.881,0.336,4.561,1.512,4.561,3.288
			c0,1.681-1.296,3.121-3.096,4.177c0.552,0.744,4.416,4.969,5.04,5.568l-1.656,1.464c-0.24-0.288-5.185-6.337-5.832-7.2
			c1.08-0.552,3.264-1.656,3.264-3.696c0-0.96-0.744-2.185-4.824-2.208V27.896z"/>
		<path class="st1" d="M116.687,34.041c0.36-0.864,4.801-14.018,4.921-14.521h0.096c0.648,1.296,4.585,8.736,5.232,9.913
			c0.696-1.152,5.185-8.665,5.568-9.289h0.072c0.647,1.656,4.416,11.617,5.305,13.777l-1.992,0.744
			c-0.504-1.536-3.48-9.889-3.769-10.681c-0.696,1.128-4.488,7.369-5.425,8.857h-0.048c-1.224-2.28-3.769-7.057-4.729-8.905
			c-0.384,1.272-3.048,9.938-3.264,10.729L116.687,34.041z"/>
		<path class="st1" d="M141.263,33.513c1.152-2.04,7.393-13.585,7.872-14.377h0.048c1.849,2.904,7.033,12.097,8.449,14.233
			l-1.944,1.176c-0.384-0.769-2.64-4.801-2.856-5.16l-7.416,0.287c-0.288,0.648-1.969,4.201-2.305,4.896L141.263,33.513z
			 M152.087,27.92c-0.239-0.456-2.76-5.064-2.976-5.4c-0.313,0.48-2.688,5.305-2.881,5.641L152.087,27.92z"/>
		<path class="st1" d="M164.663,34.137c0.12-0.528,0.144-6.48,0.144-9.721V21.56c-2.472,0-5.568,0.096-5.88,0.192v-1.944
			c0.624,0.168,5.784,0.24,6.024,0.24h1.92c0.408,0,5.16-0.072,5.856-0.24v1.944c-0.048-0.096-4.08-0.192-5.832-0.192v3.168
			c0,4.153,0.216,9,0.264,9.409H164.663z"/>
		<path class="st1" d="M180.263,27.969c0,2.039,0.072,5.688,0.096,6.168h-2.256c0.048-0.889,0.072-5.664,0.072-6.192v-2.208
			c0-0.36-0.072-5.401-0.121-5.881h2.329c-0.048,0.36-0.12,3.456-0.12,5.904V27.969z"/>
		<path class="st1" d="M186.958,27.729c0-4.537,3.336-8.209,8.617-8.209c4.225,0,7.32,2.568,7.32,6.96
			c0,3.192-2.256,7.993-8.545,7.993C189.574,34.473,186.958,31.328,186.958,27.729z M200.663,26.576c0-3.648-2.544-5.473-5.4-5.473
			c-3.816,0-6.097,2.832-6.097,6.313c0,3.049,2.04,5.473,5.377,5.473C197.831,32.889,200.663,30.608,200.663,26.576z"/>
		<path class="st1" d="M208.822,34.137c0.12-1.536,0.72-12.985,0.815-15.098h0.121c0.623,0.672,10.633,10.753,11.305,11.401
			c0-0.576,0.048-10.009,0.072-10.681l2.136,0.096c-0.097,1.224-0.504,9.577-0.601,14.713h-0.096
			c-0.624-0.552-11.137-11.041-11.4-11.329h-0.049c0.049,0.384-0.119,10.369-0.096,11.042L208.822,34.137z"/>
	</g>
</g>
</svg>
