<?xml version="1.0" encoding="utf-8"?>
<!-- Generator: Adobe Illustrator 15.1.0, SVG Export Plug-In . SVG Version: 6.00 Build 0)  -->
<!DOCTYPE svg PUBLIC "-//W3C//DTD SVG 1.1//EN" "http://www.w3.org/Graphics/SVG/1.1/DTD/svg11.dtd">
<svg version="1.1" id="圖層_1" xmlns="http://www.w3.org/2000/svg" xmlns:xlink="http://www.w3.org/1999/xlink" x="0px" y="0px"
	 width="257.063px" height="52px" viewBox="0 0 257.063 52" style="enable-background:new 0 0 257.063 52;" xml:space="preserve">
<style type="text/css">
<![CDATA[
	.st0{fill:none;stroke:#000000;stroke-width:2;stroke-miterlimit:10;}
	.st1{fill:#F1F1F1;stroke:#000000;stroke-miterlimit:10;}
]]>
</style>
<path class="st0" d="M256.063,26.063c0,13.807-11.252,25-25.132,25H26.195c-13.881,0-25.132-11.193-25.132-25l0,0
	c0-13.807,11.251-25,25.132-25H230.93C244.81,1.063,256.063,12.255,256.063,26.063L256.063,26.063z"/>
<g>
	<g>
		<path class="st1" d="M98.035,33.215c0.048-1.032,0.12-6.816,0.12-8.521v-2.641c0-0.552-0.072-5.28-0.072-5.641
			c1.008,0,3.024,0.072,4.513,0.313c3.216,0.528,5.232,2.064,5.232,4.608c0,3.288-3.024,5.952-7.585,6.864v1.416
			c0,0.48,0,3.097,0.048,3.601H98.035z M100.243,26.519c3.024-0.648,5.257-2.185,5.257-4.825c0-0.72-0.408-3.432-5.257-3.504V26.519
			z"/>
		<path class="st1" d="M117.115,18.934c-0.096,0.456-0.192,4.464-0.192,7.033v5.64c0.528,0,3.12,0,5.448-0.096v1.92
			c-0.696,0-7.176-0.216-7.729-0.216c0.192-1.08,0.192-5.448,0.192-5.929v-2.712c0-0.336-0.048-5.257-0.096-5.641H117.115z"/>
		<path class="st1" d="M126.979,26.807c0-4.537,3.336-8.209,8.617-8.209c4.225,0,7.32,2.568,7.32,6.96
			c0,3.192-2.256,7.993-8.544,7.993C129.595,33.551,126.979,30.406,126.979,26.807z M140.684,25.654c0-3.648-2.544-5.473-5.4-5.473
			c-3.816,0-6.097,2.832-6.097,6.313c0,3.049,2.041,5.473,5.376,5.473C137.852,31.967,140.684,29.687,140.684,25.654z"/>
		<path class="st1" d="M152.251,33.215c0.12-0.528,0.144-6.48,0.144-9.721v-2.856c-2.472,0-5.569,0.096-5.88,0.192v-1.944
			c0.624,0.168,5.784,0.24,6.024,0.24h1.92c0.408,0,5.161-0.072,5.856-0.24v1.944c-0.048-0.096-4.08-0.192-5.833-0.192v3.168
			c0,4.153,0.216,9,0.264,9.409H152.251z"/>
	</g>
</g>
</svg>
