<?xml version="1.0" encoding="utf-8"?>
<!-- Generator: Adobe Illustrator 15.1.0, SVG Export Plug-In . SVG Version: 6.00 Build 0)  -->
<!DOCTYPE svg PUBLIC "-//W3C//DTD SVG 1.1//EN" "http://www.w3.org/Graphics/SVG/1.1/DTD/svg11.dtd">
<svg version="1.1" id="圖層_1" xmlns="http://www.w3.org/2000/svg" xmlns:xlink="http://www.w3.org/1999/xlink" x="0px" y="0px"
	 width="257.063px" height="52px" viewBox="0 0 257.063 52" style="enable-background:new 0 0 257.063 52;" xml:space="preserve">
<style type="text/css">
<![CDATA[
	.st0{fill:none;stroke:#000000;stroke-width:2;stroke-miterlimit:10;}
	.st1{fill:#F1F1F1;stroke:#000000;stroke-miterlimit:10;}
]]>
</style>
<g>
	<path class="st0" d="M256.031,26c0,13.807-11.252,25-25.133,25H26.164C12.283,51,1.031,39.807,1.031,26l0,0
		c0-13.807,11.252-25,25.133-25h204.734C244.779,1,256.031,12.193,256.031,26L256.031,26z"/>
	<g>
		<g>
			<path class="st1" d="M87.84,31.784c2.352-0.479,5.353-1.681,5.353-3.624c0-1.2-0.769-1.824-2.496-2.761
				c-2.04-1.104-3.457-2.112-3.457-3.816c0-2.544,3.553-4.92,6.841-5.664l0.504,1.848c-1.464,0.24-5.016,1.392-5.016,3.408
				c0,1.248,1.703,2.016,2.712,2.616c1.824,1.08,3.288,1.848,3.288,3.792c0,2.352-2.496,4.92-7.104,6L87.84,31.784z"/>
			<path class="st1" d="M110.832,33.368c-0.72,0-7.297-0.216-7.729-0.216c0.072-1.08,0.072-5.448,0.072-5.929v-2.712
				c0-0.336-0.048-5.257-0.072-5.641c0.528,0,6.217-0.312,7.297-0.384l0.096,1.728c-0.936,0-4.872,0.096-5.232,0.096v4.992
				c0.408,0,3.192-0.096,4.513-0.216l0.071,1.752c-0.359,0-1.392-0.024-2.399-0.048c-0.984,0-1.944-0.024-2.185-0.024v4.849
				c0.528,0,3.456,0.048,5.496-0.072L110.832,33.368z"/>
			<path class="st1" d="M120.336,26.912c0,0.768,0.072,5.928,0.12,6.24h-2.257c0.072-0.48,0.049-6.961,0.049-7.393v-1.656
				c0-0.624-0.049-4.849-0.12-5.232c1.032,0,2.928-0.048,4.752,0.168c2.88,0.336,4.561,1.512,4.561,3.288
				c0,1.681-1.296,3.121-3.097,4.177c0.553,0.744,4.417,4.969,5.041,5.568l-1.656,1.464c-0.24-0.288-5.185-6.337-5.832-7.2
				c1.08-0.552,3.264-1.656,3.264-3.696c0-0.96-0.744-2.185-4.824-2.208V26.912z"/>
			<path class="st1" d="M137.52,26.984c0,2.04,0.072,5.688,0.096,6.168h-2.256c0.048-0.889,0.072-5.664,0.072-6.192v-2.208
				c0-0.36-0.072-5.401-0.12-5.881h2.328c-0.048,0.36-0.12,3.456-0.12,5.904V26.984z"/>
			<path class="st1" d="M153.936,33.368c-0.72,0-7.296-0.216-7.729-0.216c0.072-1.08,0.072-5.448,0.072-5.929v-2.712
				c0-0.336-0.048-5.257-0.072-5.641c0.528,0,6.217-0.312,7.297-0.384l0.096,1.728c-0.936,0-4.872,0.096-5.232,0.096v4.992
				c0.408,0,3.192-0.096,4.513-0.216l0.072,1.752c-0.36,0-1.393-0.024-2.4-0.048c-0.984,0-1.944-0.024-2.185-0.024v4.849
				c0.528,0,3.457,0.048,5.497-0.072L153.936,33.368z"/>
			<path class="st1" d="M160.703,31.856c2.208-0.433,5.017-1.32,5.017-2.952c0-1.057-0.744-1.561-2.328-2.329
				c-1.872-0.912-3.24-1.776-3.24-3.264c0-2.28,3.336-4.272,6.433-4.824l0.456,1.68c-1.416,0.216-4.681,1.032-4.681,2.809
				c0,1.104,1.561,1.656,2.496,2.184c1.656,0.912,3.097,1.56,3.097,3.264c0,2.112-2.425,4.248-6.697,5.112L160.703,31.856z"/>
		</g>
	</g>
</g>
<path class="st0" d="M541.063,26.5c0,13.807-11.252,25-25.133,25H311.195c-13.881,0-25.133-11.193-25.133-25l0,0
	c0-13.807,11.252-25,25.133-25H515.93C529.811,1.5,541.063,12.693,541.063,26.5L541.063,26.5z"/>
<g>
	<g>
		<path class="st1" d="M320.443,26.404c0,2.4,0.072,6.697,0.096,7.249h-2.328c0.049-1.057,0.072-6.673,0.072-7.297v-2.592
			c0-0.408-0.072-6.337-0.12-6.913h2.4c-0.048,0.433-0.12,4.081-0.12,6.961V26.404z"/>
		<path class="st1" d="M328.867,33.652c0.12-1.536,0.721-12.985,0.816-15.098h0.12c0.624,0.672,10.633,10.753,11.305,11.401
			c0-0.576,0.048-10.009,0.072-10.681l2.136,0.096c-0.096,1.224-0.504,9.577-0.6,14.713h-0.097
			c-0.624-0.552-11.137-11.041-11.4-11.329h-0.048c0.048,0.384-0.12,10.369-0.097,11.042L328.867,33.652z"/>
		<path class="st1" d="M351.092,33.652c0.191-1.08,0.191-5.448,0.191-5.929v-2.712c0-0.336-0.048-5.257-0.096-5.641
			c0.552,0,6.024-0.216,7.272-0.312l0.096,1.728l-5.185,0.096v4.993c0.408,0,3.505-0.12,4.776-0.192l0.072,1.704l-4.849-0.072v1.872
			c0,0.313-0.023,4.177,0.072,4.465H351.092z"/>
		<path class="st1" d="M363.715,27.244c0-4.537,3.336-8.209,8.617-8.209c4.224,0,7.32,2.568,7.32,6.96
			c0,3.192-2.256,7.993-8.545,7.993C366.331,33.988,363.715,30.844,363.715,27.244z M377.42,26.092c0-3.648-2.544-5.473-5.4-5.473
			c-3.816,0-6.097,2.832-6.097,6.313c0,3.049,2.04,5.473,5.377,5.473C374.588,32.404,377.42,30.124,377.42,26.092z"/>
		<path class="st1" d="M388.411,27.412c0,0.768,0.072,5.928,0.12,6.24h-2.256c0.071-0.48,0.048-6.961,0.048-7.393v-1.656
			c0-0.624-0.048-4.849-0.12-5.232c1.032,0,2.928-0.048,4.752,0.168c2.881,0.336,4.561,1.512,4.561,3.288
			c0,1.681-1.296,3.121-3.096,4.177c0.552,0.744,4.416,4.969,5.04,5.568l-1.656,1.464c-0.24-0.288-5.185-6.336-5.832-7.2
			c1.08-0.552,3.264-1.656,3.264-3.696c0-0.96-0.744-2.185-4.824-2.208V27.412z"/>
		<path class="st1" d="M401.059,33.557c0.36-0.864,4.801-14.018,4.921-14.521h0.096c0.648,1.296,4.585,8.736,5.232,9.913
			c0.696-1.152,5.185-8.665,5.568-9.289h0.072c0.647,1.656,4.416,11.617,5.305,13.777l-1.992,0.744
			c-0.504-1.536-3.48-9.889-3.769-10.681c-0.696,1.128-4.488,7.369-5.425,8.857h-0.048c-1.224-2.28-3.769-7.057-4.729-8.905
			c-0.384,1.272-3.048,9.938-3.264,10.729L401.059,33.557z"/>
		<path class="st1" d="M425.635,33.028c1.152-2.04,7.393-13.585,7.872-14.377h0.048c1.849,2.904,7.033,12.097,8.449,14.233
			l-1.944,1.176c-0.384-0.769-2.64-4.801-2.856-5.16l-7.416,0.287c-0.288,0.648-1.969,4.201-2.305,4.896L425.635,33.028z
			 M436.459,27.436c-0.239-0.456-2.76-5.064-2.976-5.4c-0.313,0.48-2.688,5.305-2.881,5.641L436.459,27.436z"/>
		<path class="st1" d="M449.035,33.652c0.12-0.528,0.144-6.48,0.144-9.721v-2.856c-2.472,0-5.568,0.096-5.88,0.192v-1.944
			c0.624,0.168,5.784,0.24,6.024,0.24h1.92c0.408,0,5.16-0.072,5.856-0.24v1.944c-0.048-0.096-4.08-0.192-5.832-0.192v3.168
			c0,4.153,0.216,9,0.264,9.409H449.035z"/>
		<path class="st1" d="M464.635,27.484c0,2.04,0.072,5.688,0.096,6.168h-2.256c0.048-0.889,0.072-5.665,0.072-6.192v-2.208
			c0-0.36-0.072-5.401-0.121-5.881h2.329c-0.048,0.36-0.12,3.456-0.12,5.904V27.484z"/>
		<path class="st1" d="M471.33,27.244c0-4.537,3.336-8.209,8.617-8.209c4.225,0,7.32,2.568,7.32,6.96
			c0,3.192-2.256,7.993-8.545,7.993C473.946,33.988,471.33,30.844,471.33,27.244z M485.035,26.092c0-3.648-2.544-5.473-5.4-5.473
			c-3.816,0-6.097,2.832-6.097,6.313c0,3.049,2.04,5.473,5.377,5.473C482.203,32.404,485.035,30.124,485.035,26.092z"/>
		<path class="st1" d="M493.194,33.652c0.12-1.536,0.72-12.985,0.815-15.098h0.121c0.623,0.672,10.633,10.753,11.305,11.401
			c0-0.576,0.048-10.009,0.072-10.681l2.136,0.096c-0.097,1.224-0.504,9.577-0.601,14.713h-0.096
			c-0.624-0.552-11.137-11.041-11.4-11.329h-0.049c0.049,0.384-0.119,10.369-0.096,11.042L493.194,33.652z"/>
	</g>
</g>
</svg>
